# xmcd CD database file
#
# Track frame offsets:
#	150
#	14329
#	39838
#	61072
#	78562
#	97409
#	109795
#	132680
#	153776
#	170777
#
# Disc length: 2527 seconds
#
# Revision: 0
# Processed by: cddbd v1.4PL0 Copyright (c) Steve Scherf et al.
# Submitted via: CDex 1.50beta9
#
DISCID=8109dd0a
DTITLE=Montgomery Blair High School Jazz Band - Kurt Lucas - Home At Last
DYEAR=2001
DGENRE=Jazz
TTITLE0=Lester Leaps In
TTITLE1=Home At Last
TTITLE2=L'il Darlin'
TTITLE3=Crazeology
TTITLE4=Birdland
TTITLE5=Here's That Rainy Day
TTITLE6=Front Burner
TTITLE7=In a Sentimental Mood
TTITLE8=Jumpin' at the Woodside
TTITLE9=Spanish Fever
EXTD=YEAR: 2001
EXTT0=
EXTT1=
EXTT2=
EXTT3=
EXTT4=
EXTT5=
EXTT6=
EXTT7=
EXTT8=
EXTT9=
PLAYORDER=
